<?xml version="1.0" encoding="UTF-8"?>
<svg version="1.1" xmlns="http://www.w3.org/2000/svg" width="75" height="99">
<path d="M0 0 C3.59868015 7.64719531 4.71062465 15.74141312 2.05078125 23.91796875 C-1.80161522 32.1453265 -7.30691194 35.42045142 -15.375 38.9375 C-16.21482422 39.30866943 -17.05464844 39.67983887 -17.91992188 40.06225586 C-20.94100784 41.38812347 -23.96955722 42.69565765 -27 44 C-27.94027039 44.40587341 -27.94027039 44.40587341 -28.89953613 44.81994629 C-33.06075502 46.61549386 -37.22686921 48.39905318 -41.39874268 50.16970825 C-42.79639928 50.76355093 -44.19317566 51.35946968 -45.58905029 51.95748901 C-47.5667745 52.80320425 -49.54833989 53.63918562 -51.53125 54.47265625 C-52.68173828 54.96000244 -53.83222656 55.44734863 -55.01757812 55.94946289 C-58 57 -58 57 -62 57 C-65.28834441 49.24890246 -66.58404736 41.44085832 -64.19140625 33.22265625 C-59.99607138 23.56903102 -50.95594236 19.63886292 -41.6171875 15.80078125 C-40.75868195 15.43905319 -39.90017639 15.07732513 -39.01565552 14.70463562 C-36.30570195 13.56510041 -33.59058089 12.43854926 -30.875 11.3125 C-29.04781324 10.54709195 -27.22098706 9.78082253 -25.39453125 9.01367188 C-21.30051976 7.29545992 -17.20407108 5.58338105 -13.10101318 3.88687134 C-11.73215938 3.30905621 -10.37070398 2.71328581 -9.01861572 2.09725952 C-5.67422072 0.57861928 -3.76480423 0 0 0 Z " fill="#fff" transform="translate(72,0)"/>
<path d="M0 0 C3.41493918 6.87687294 4.14680991 14.18195586 2.37890625 21.609375 C-0.09115289 28.85488182 -4.61040389 33.56192008 -11.32974243 37.29399109 C-13.84185786 38.44403724 -16.37344658 39.49646495 -18.94140625 40.515625 C-19.86791489 40.89813416 -20.79442352 41.28064331 -21.74900818 41.67474365 C-24.6809985 42.88139164 -27.62127417 44.06606781 -30.5625 45.25 C-32.5390106 46.05843255 -34.51492825 46.86831641 -36.49023438 47.6796875 C-40.9119315 49.49390105 -45.33953392 51.29284938 -49.77175903 53.08117676 C-51.84107305 53.9344659 -53.88255182 54.83497282 -55.92553711 55.74902344 C-59 57 -59 57 -62 57 C-65.68388984 49.32522951 -66.55174301 40.8375094 -64.34375 32.53125 C-60.24670479 23.34821763 -51.53430597 19.49621899 -42.75 15.8125 C-41.67548584 15.35198242 -40.60097168 14.89146484 -39.49389648 14.41699219 C-36.00243344 12.92873688 -32.50215522 11.46290162 -29 10 C-27.74282657 9.47030383 -26.48583 8.94018773 -25.22900391 8.40966797 C-21.51248095 6.84264858 -17.78863016 5.29404709 -14.0625 3.75 C-12.88977539 3.25991455 -11.71705078 2.7698291 -10.50878906 2.26489258 C-9.42436523 1.82169678 -8.33994141 1.37850098 -7.22265625 0.921875 C-6.26109619 0.52581055 -5.29953613 0.12974609 -4.30883789 -0.27832031 C-2 -1 -2 -1 0 0 Z " fill="#fff" transform="translate(65,42)"/>
</svg>
