<svg width="67" height="45" viewBox="0 0 67 45" fill="none" xmlns="http://www.w3.org/2000/svg">
<path id="Vector" d="M8.18507 26.8789L6.10086 22.7539H20.6903L19.023 18.6289H5.40613L3.32192 14.5039H24.9977L23.3303 10.3789H2.93286L0.542969 6.2539H10.964C10.964 4.79521 11.5496 3.39627 12.5919 2.36482C13.6342 1.33337 15.0479 0.753906 16.5219 0.753906H49.8693V11.7539H58.2061L66.5429 22.7539V36.5039H60.9851C60.9851 38.6919 60.1067 40.7904 58.5433 42.3375C56.9798 43.8847 54.8593 44.7539 52.6482 44.7539C50.4371 44.7539 48.3166 43.8847 46.7532 42.3375C45.1897 40.7904 44.3114 38.6919 44.3114 36.5039H33.1956C33.1956 38.6919 32.3172 40.7904 30.7538 42.3375C29.1903 43.8847 27.0698 44.7539 24.8587 44.7539C22.6477 44.7539 20.5272 43.8847 18.9637 42.3375C17.4003 40.7904 16.5219 38.6919 16.5219 36.5039H10.964V26.8789H8.18507ZM52.6482 40.6289C53.7537 40.6289 54.814 40.1943 55.5957 39.4207C56.3775 38.6471 56.8166 37.5979 56.8166 36.5039C56.8166 35.4099 56.3775 34.3607 55.5957 33.5871C54.814 32.8135 53.7537 32.3789 52.6482 32.3789C51.5427 32.3789 50.4824 32.8135 49.7007 33.5871C48.919 34.3607 48.4798 35.4099 48.4798 36.5039C48.4798 37.5979 48.919 38.6471 49.7007 39.4207C50.4824 40.1943 51.5427 40.6289 52.6482 40.6289ZM56.8166 15.8789H49.8693V22.7539H62.2634L56.8166 15.8789ZM24.8587 40.6289C25.9643 40.6289 27.0245 40.1943 27.8063 39.4207C28.588 38.6471 29.0272 37.5979 29.0272 36.5039C29.0272 35.4099 28.588 34.3607 27.8063 33.5871C27.0245 32.8135 25.9643 32.3789 24.8587 32.3789C23.7532 32.3789 22.693 32.8135 21.9112 33.5871C21.1295 34.3607 20.6903 35.4099 20.6903 36.5039C20.6903 37.5979 21.1295 38.6471 21.9112 39.4207C22.693 40.1943 23.7532 40.6289 24.8587 40.6289Z" fill="#2EA100"/>
</svg>
