<svg width="45" height="44" viewBox="0 0 45 44" fill="none" xmlns="http://www.w3.org/2000/svg">
<path id="Vector" d="M43.4339 19.9277L34.5895 27.6837L37.2841 39.2827C37.4328 39.9123 37.3945 40.5726 37.1741 41.1802C36.9537 41.7877 36.561 42.3153 36.0457 42.6962C35.5305 43.0771 34.9157 43.2942 34.279 43.3202C33.6424 43.3461 33.0124 43.1798 32.4688 42.8421L22.5434 36.6341L12.6121 42.8421C12.0685 43.1778 11.4393 43.3426 10.8037 43.3157C10.1682 43.2888 9.55468 43.0713 9.04048 42.6908C8.52628 42.3102 8.13437 41.7835 7.9141 41.1771C7.69383 40.5706 7.65505 39.9115 7.80265 39.2827L10.5071 27.6837L1.66265 19.9277C1.1817 19.5053 0.833877 18.9482 0.662605 18.3261C0.491332 17.704 0.504206 17.0443 0.699619 16.4296C0.895031 15.8148 1.26432 15.2722 1.76137 14.8695C2.25842 14.4668 2.8612 14.2218 3.49443 14.1652L15.0905 13.2144L19.5638 2.21265C19.8059 1.61306 20.218 1.10018 20.7477 0.739229C21.2774 0.378275 21.9007 0.185547 22.5385 0.185547C23.1762 0.185547 23.7995 0.378275 24.3292 0.739229C24.8589 1.10018 25.271 1.61306 25.5131 2.21265L29.9845 13.2144L41.5805 14.1652C42.215 14.2197 42.8195 14.4633 43.3184 14.8655C43.8172 15.2676 44.1882 15.8105 44.3849 16.426C44.5815 17.0415 44.595 17.7022 44.4238 18.3255C44.2525 18.9488 43.9041 19.5068 43.4221 19.9297L43.4339 19.9277Z" fill="#2EA100"/>
</svg>
